<?xml version="1.0" encoding="UTF-8" standalone="no"?>
<!-- Created with Inkscape (http://www.inkscape.org/) -->

<svg
   version="1.1"
   id="svg1"
   width="358.40106"
   height="214.9263"
   viewBox="0 0 358.40107 214.9263"
   xmlns="http://www.w3.org/2000/svg"
   xmlns:svg="http://www.w3.org/2000/svg">
  <defs
     id="defs1" />
  <g
     id="g1"
     transform="translate(7.0636603e-4,0.00142735)">
    <path
       id="path1"
       d="M 8.72928,8.72928 H -8.72928 V -8.72928 H 8.72928 Z"
       style="fill:none;stroke:#000000;stroke-width:0.3985;stroke-linecap:butt;stroke-linejoin:miter;stroke-miterlimit:10;stroke-dasharray:none;stroke-opacity:1"
       transform="matrix(1.3333333,0,0,-1.3333333,11.904,105.72133)" />
    <path
       id="path2"
       d="m 3.4913594,-0.56197656 c 0.1054687,0.41015625 0.4570312,0.66796875 0.8789062,0.66796875 0.3515625,0 0.5742188,-0.22265625 0.7382813,-0.5390625 0.1757812,-0.36328125 0.3046875,-0.97265629 0.3046875,-0.99609379 0,-0.09375 -0.09375,-0.09375 -0.1289063,-0.09375 -0.09375,0 -0.1054687,0.035156 -0.140625,0.1757813 -0.1289062,0.56249999 -0.328125,1.24218749 -0.7382812,1.24218749 -0.2109375,0 -0.3164063,-0.12890625 -0.3164063,-0.45703125 0,-0.22265625 0.1289063,-0.69140624 0.1992188,-1.04296874 l 0.28125,-1.078125 c 0.035156,-0.140625 0.1289062,-0.5273438 0.1757812,-0.6679688 0.046875,-0.234375 0.140625,-0.609375 0.140625,-0.6679687 0,-0.1875 -0.140625,-0.2695313 -0.28125,-0.2695313 -0.058594,0 -0.3164062,0 -0.3867187,0.3398438 -0.1992188,0.7265625 -0.6328125,2.4726562 -0.75,2.99999999 -0.011719,0.046875 -0.4101563,0.84375 -1.1367188,0.84375 -0.515625,0 -0.6210937,-0.45703125 -0.6210937,-0.8203125 0,-0.56249999 0.28125,-1.34765629 0.5390625,-2.02734379 0.1171875,-0.3046875 0.1757812,-0.4453125 0.1757812,-0.6328125 0,-0.4453125 -0.328125,-0.8203125 -0.8203125,-0.8203125 -0.94921872,0 -1.31249997,1.453125 -1.31249997,1.5351563 0,0.1054687 0.09375,0.1054687 0.1171875,0.1054687 0.09375,0 0.10546875,-0.023437 0.15234375,-0.1875 0.2578125,-0.8671875 0.63281252,-1.2304687 1.00781252,-1.2304687 0.09375,0 0.2578125,0.011719 0.2578125,0.328125 0,0.234375 -0.1171875,0.5273437 -0.1757813,0.6796875 -0.3632812,0.984375 -0.5742187,1.6054687 -0.5742187,2.0859375 0,0.94921874 0.6796875,1.19531249 1.21875,1.19531249 0.65625,0 1.0195312,-0.4453125 1.1953125,-0.66796875 z m 0,0"
       style="fill:#000000;fill-opacity:1;fill-rule:nonzero;stroke:none"
       aria-label="u"
       transform="matrix(1.3333333,0,0,1.3333333,8.1026667,108.58133)" />
    <path
       id="path3"
       d="M 259.67302,8.36407 H 242.94516 V -8.36377 h 16.72786 z"
       style="fill:none;stroke:#000000;stroke-width:0.3985;stroke-linecap:butt;stroke-linejoin:miter;stroke-miterlimit:10;stroke-dasharray:none;stroke-opacity:1"
       transform="matrix(1.3333333,0,0,-1.3333333,11.904,105.72133)" />
    <path
       id="path4"
       d="m 4.6627109,-3.7026016 c 0,-0.5390625 -0.2578125,-0.703125 -0.4453125,-0.703125 -0.2460937,0 -0.4804687,0.2578125 -0.4804687,0.4804688 0,0.1289062 0.046875,0.1875 0.1523437,0.3046875 0.2109375,0.1992187 0.3398438,0.4570312 0.3398438,0.8085937 0,0.421875 -0.609375,2.70703129 -1.7695313,2.70703129 -0.5039062,0 -0.7382812,-0.3515625 -0.7382812,-0.8671875 0,-0.56249999 0.2695312,-1.28906249 0.5742187,-2.12109379 0.070312,-0.1640625 0.1289063,-0.3046875 0.1289063,-0.4921875 0,-0.4453125 -0.328125,-0.8203125 -0.8203125,-0.8203125 -0.93750001,0 -1.31250001,1.453125 -1.31250001,1.5351563 0,0.1054687 0.09375,0.1054687 0.1171875,0.1054687 0.09375,0 0.10546875,-0.023437 0.15234375,-0.1875 0.29296875,-0.9960937 0.72656246,-1.2304687 1.00781246,-1.2304687 0.082031,0 0.2578125,0 0.2578125,0.3164062 0,0.2460938 -0.1054687,0.515625 -0.1757812,0.703125 -0.4335938,1.1484375 -0.5625,1.6054688 -0.5625,2.0390625 0,1.07812504 0.8671875,1.23046879 1.3359375,1.23046879 1.6640625,0 2.2382812,-3.29296879 2.2382812,-3.80859379 z m 0,0"
       style="fill:#000000;fill-opacity:1;fill-rule:nonzero;stroke:none"
       aria-label="v"
       transform="matrix(1.3333333,0,0,1.3333333,343.52133,108.58133)" />
    <path
       id="path5"
       d="m 125.83798,-60.44333 -10.63006,-6.13692 v 0 -15.12316 h 21.26014 v 15.12316 0 z"
       style="fill:none;stroke:#000000;stroke-width:0.3985;stroke-linecap:butt;stroke-linejoin:miter;stroke-miterlimit:10;stroke-dasharray:none;stroke-opacity:1"
       transform="matrix(1.3333333,0,0,-1.3333333,11.904,105.72133)" />
    <path
       id="path6"
       d="m 135.17784,69.75296 c 0,5.15833 -4.18154,9.33986 -9.33986,9.33986 -5.15831,0 -9.33984,-4.18153 -9.33984,-9.33986 0,-5.15831 4.18153,-9.33984 9.33984,-9.33984 5.15832,0 9.33986,4.18153 9.33986,9.33984 z"
       style="fill:none;stroke:#000000;stroke-width:0.3985;stroke-linecap:butt;stroke-linejoin:miter;stroke-miterlimit:10;stroke-dasharray:none;stroke-opacity:1"
       transform="matrix(1.3333333,0,0,-1.3333333,11.904,105.72133)" />
    <path
       id="path7"
       d="m 3.8685781,-7.4882578 c 0,-0.1171875 -0.082031,-0.1992188 -0.1992187,-0.1992188 -0.1523438,0 -0.1757813,0.1054688 -0.2460938,0.3164063 -0.1171875,0.3984375 -0.011719,0.046875 -0.1289062,0.4453125 -0.1171875,-0.058594 -0.4335938,-0.2109375 -0.796875,-0.2109375 -0.5742188,0 -1.21875,0.3046875 -1.59375003,1.0664062 -0.38671875,0.8085938 -0.43359375,1.7109375 -0.43359375,2.6367188 0,0.6210937 0,2.4140625 0.86718748,3.19921874 -0.234375,0.76171875 -0.234375,0.78515625 -0.234375,0.80859375 0,0.1171875 0.082031,0.19921875 0.1992188,0.19921875 0.1523437,0 0.1875,-0.09375 0.2460937,-0.31640625 0.1171875,-0.3984375 0.011719,-0.046875 0.1289063,-0.4453125 0.234375,0.12890625 0.5390625,0.2109375 0.8085937,0.2109375 1.1132813,0 1.546875,-0.9375 1.734375,-1.41796879 0.2578125,-0.703125 0.28125,-1.5234375 0.28125,-2.2382812 0,-0.7382813 0,-2.390625 -0.8671875,-3.2226563 z M 1.4662344,-0.70310156 C 1.1381094,-1.3827891 1.1381094,-2.6132578 1.1381094,-3.5507578 c 0,-0.8085938 0,-1.5 0.140625,-2.1328125 0.1875,-0.9257813 0.7617187,-1.2304688 1.21875,-1.2304688 0.1992187,0 0.4570312,0.058594 0.7148437,0.28125 z M 3.5052969,-6.2343516 c 0.328125,0.5742188 0.328125,1.734375 0.328125,2.6835938 0,0.7265625 0,1.453125 -0.1171875,2.1210937 C 3.5404531,-0.37497656 3.0131094,2.34375e-5 2.4857656,2.34375e-5 c -0.234375,0 -0.46875,-0.0820312475 -0.7148437,-0.2929687475 z m 0,0"
       style="fill:#000000;fill-opacity:1;fill-rule:nonzero;stroke:none"
       aria-label="∅"
       transform="matrix(1.3333333,0,0,1.3333333,176.36533,17.332)" />
    <path
       id="path8"
       d="m 8.9307,3.8e-4 230.22767,9e-5"
       style="fill:none;stroke:#000000;stroke-width:0.3985;stroke-linecap:butt;stroke-linejoin:miter;stroke-miterlimit:10;stroke-dasharray:none;stroke-opacity:1"
       transform="matrix(1.3333333,0,0,-1.3333333,11.904,105.72133)" />
    <path
       id="path9"
       d="M 3.58653,0 C 2.52383,0.19925 0.797,0.797 -0.3985,1.49438 V -1.49438 C 0.797,-0.797 2.52383,-0.19925 3.58653,0"
       style="fill:#000000;fill-opacity:1;fill-rule:nonzero;stroke:none"
       transform="matrix(1.3333333,0,0,-1.3333333,330.78183,105.72071)" />
    <g
       id="g9"
       aria-label="d&#10;uv&#10;(s,t)"
       transform="matrix(1.3333333,0,0,1.3333333,156.304,97.706667)">
      <path
         id="path10"
         d="m 5.1450469,-6.8083203 c 0,0 0,-0.1054688 -0.1289063,-0.1054688 -0.1523437,0 -1.1015625,0.09375 -1.265625,0.1054688 -0.082031,0.011719 -0.140625,0.070312 -0.140625,0.1992187 0,0.1171875 0.082031,0.1171875 0.234375,0.1171875 0.4804688,0 0.5039063,0.070312 0.5039063,0.1640625 l -0.035156,0.1992188 -0.5976562,2.3671875 c -0.1757813,-0.375 -0.46875,-0.6445313 -0.9140625,-0.6445313 -1.171875,0 -2.40234377,1.4648438 -2.40234377,2.9179688 0,0.93749999 0.55078125,1.59374999 1.32421877,1.59374999 0.1992187,0 0.703125,-0.03515625 1.3007812,-0.73828125 0.070312,0.41015625 0.421875,0.73828125 0.9023438,0.73828125 0.3515625,0 0.5742187,-0.22265625 0.7382812,-0.5390625 0.1640625,-0.36328125 0.2929688,-0.97265629 0.2929688,-0.99609379 0,-0.09375 -0.082031,-0.09375 -0.1171875,-0.09375 -0.09375,0 -0.1054688,0.035156 -0.140625,0.1757813 -0.1640625,0.64453124 -0.3515625,1.24218749 -0.75,1.24218749 -0.2695313,0 -0.3046875,-0.2578125 -0.3046875,-0.45703125 0,-0.24609375 0.023437,-0.31640625 0.058594,-0.48046874 z m -2.0742188,5.625 c -0.046875,0.1757812 -0.046875,0.19921874 -0.1992187,0.36328124 -0.4453125,0.55078125 -0.84375,0.71484375 -1.125,0.71484375 -0.5039063,0 -0.6445313,-0.55078125 -0.6445313,-0.93749999 0,-0.5039063 0.328125,-1.7226563 0.5507813,-2.1796875 0.3046875,-0.5976563 0.7617187,-0.9609375 1.1601562,-0.9609375 0.6445313,0 0.7851563,0.8203125 0.7851563,0.8789062 0,0.058594 -0.023437,0.1171875 -0.035156,0.1640625 z m 0,0"
         style="fill:#000000;fill-opacity:1;fill-rule:nonzero;stroke:none" />
      <path
         id="path11"
         d="M 8.1391875,0.36941406 C 8.1040313,0.51003906 8.0337188,0.76785156 8.022,0.77957031 7.8930938,0.99050781 7.6118438,1.3655078 7.17825,1.3655078 c -0.4804687,0 -0.4804687,-0.44531249 -0.4804687,-0.57421874 0,-0.41015625 0.1992187,-0.90234375 0.3867187,-1.41796875 0.058594,-0.140625 0.1054688,-0.24609375 0.1054688,-0.3515625 0,-0.36328121 -0.3046875,-0.59765621 -0.6679688,-0.59765621 -0.6914062,0 -1.0078125,0.94921871 -1.0078125,1.06640621 0,0.0820313 0.09375,0.0820313 0.1171875,0.0820313 0.09375,0 0.1054688,-0.0351563 0.1289063,-0.10546875 0.1640625,-0.57421866 0.46875,-0.85546866 0.7382812,-0.85546866 0.1289063,0 0.1757813,0.082031 0.1757813,0.2460937 0,0.16406246 -0.046875,0.30468746 -0.1171875,0.46874996 -0.3867188,0.9609375 -0.3867188,1.16015625 -0.3867188,1.34765625 0,0.1171875 0,0.44531259 0.2695313,0.66796879 0.1992187,0.1640625 0.46875,0.2226563 0.7148437,0.2226563 0.4335938,0 0.6796875,-0.234375 0.9023438,-0.4570313 0.1523437,0.4453125 0.6210937,0.4570313 0.703125,0.4570313 0.234375,0 0.421875,-0.140625 0.5507812,-0.375 C 9.4634063,0.92019531 9.568875,0.52175781 9.568875,0.49832031 c 0,-0.09375 -0.1054687,-0.09375 -0.1171875,-0.09375 -0.1054687,0 -0.1054687,0.0351563 -0.1640625,0.22265625 -0.082031,0.328125 -0.2109375,0.73828124 -0.5039062,0.73828124 -0.1757813,0 -0.234375,-0.1523437 -0.234375,-0.3398437 0,-0.11718754 0.058594,-0.36328129 0.1054687,-0.55078129 0.046875,-0.1875 0.1171875,-0.46875 0.1523438,-0.62109375 l 0.1640625,-0.62109375 c 0.046875,-0.17578125 0.1171875,-0.48046871 0.1171875,-0.51562501 0,-0.140625 -0.1054688,-0.2226562 -0.2226563,-0.2226562 -0.2578125,0 -0.3164062,0.1992187 -0.3632812,0.421875 z M 13.620633,-1.0368359 c 0,-0.5390625 -0.328125,-0.5507813 -0.351563,-0.5507813 -0.175781,0 -0.375,0.1875 -0.375,0.375 0,0.1171875 0.07031,0.1640625 0.117188,0.2109375 0.117187,0.09375 0.257812,0.28125001 0.257812,0.56250001 0,0.3046875 -0.457031,1.80468749 -1.289062,1.80468749 -0.5625,0 -0.5625,-0.50390624 -0.5625,-0.62109374 0,-0.31640625 0.117187,-0.703125 0.375,-1.359375 0.05859,-0.140625 0.105469,-0.24609375 0.105469,-0.36328125 0,-0.36328121 -0.304688,-0.59765621 -0.667969,-0.59765621 -0.691406,0 -1.007813,0.94921871 -1.007813,1.06640621 0,0.0820313 0.09375,0.0820313 0.117188,0.0820313 0.09375,0 0.105469,-0.0351563 0.128906,-0.10546875 0.164063,-0.57421866 0.46875,-0.85546866 0.738281,-0.85546866 0.128907,0 0.175782,0.082031 0.175782,0.2460937 0,0.16406246 -0.04687,0.30468746 -0.117188,0.46874996 -0.304687,0.7734375 -0.386719,1.078125 -0.386719,1.32421875 0,0.69140629 0.550782,0.91406259 1.078125,0.91406259 1.171875,0 1.664063,-2.02734384 1.664063,-2.6015626 z m 0,0"
         style="fill:#000000;fill-opacity:1;fill-rule:nonzero;stroke:none" />
      <path
         id="path12"
         d="m 17.921414,2.3908984 c 0,-0.035156 0,-0.046875 -0.164062,-0.2226562 -1.242188,-1.25390626 -1.570313,-3.12890626 -1.570313,-4.6640625 0,-1.7226563 0.386719,-3.4570313 1.605469,-4.7109375 0.128906,-0.1171875 0.128906,-0.1289063 0.128906,-0.1640625 0,-0.070312 -0.03516,-0.1054688 -0.09375,-0.1054688 -0.105469,0 -0.996094,0.6796875 -1.582031,1.9453125 -0.515625,1.1015625 -0.632813,2.203125 -0.632813,3.0351563 0,0.7851562 0.117188,1.99218749 0.65625,3.11718749 0.597657,1.21875001 1.453125,1.87500001 1.558594,1.87500001 0.05859,0 0.09375,-0.035156 0.09375,-0.1054688 z m 0,0"
         style="fill:#000000;fill-opacity:1;fill-rule:nonzero;stroke:none" />
      <path
         id="path13"
         d="m 22.395047,-3.7262891 c -0.269531,0.011719 -0.46875,0.234375 -0.46875,0.4453125 0,0.140625 0.08203,0.2929688 0.304687,0.2929688 0.222657,0 0.457032,-0.1640625 0.457032,-0.5625 0,-0.4453125 -0.433594,-0.8554688 -1.183594,-0.8554688 -1.3125,0 -1.6875,1.0195313 -1.6875,1.453125 0,0.7851563 0.738281,0.9257813 1.03125,0.9960938 0.515625,0.09375 1.03125,0.1992187 1.03125,0.75 0,0.25781249 -0.222656,1.10156249 -1.417969,1.10156249 -0.140625,0 -0.914062,0 -1.136719,-0.52734375 0.375,0.046875 0.621094,-0.2578125 0.621094,-0.52734374 0,-0.234375 -0.152344,-0.3515625 -0.363281,-0.3515625 -0.257813,0 -0.5625,0.2109375 -0.5625,0.65624999 0,0.5625 0.574219,0.9609375 1.429687,0.9609375 1.605469,0 2.003907,-1.20703129 2.003907,-1.65234379 0,-0.3515625 -0.199219,-0.609375 -0.316407,-0.7265625 -0.269531,-0.28125 -0.550781,-0.328125 -0.996093,-0.421875 -0.351563,-0.070312 -0.75,-0.140625 -0.75,-0.5976562 0,-0.28125 0.234375,-0.890625 1.113281,-0.890625 0.246094,0 0.75,0.070312 0.890625,0.4570312 z m 2.806641,3.71484379 c 0,-0.65625 -0.257813,-1.04296879 -0.644532,-1.04296879 -0.328125,0 -0.527343,0.24609379 -0.527343,0.52734379 0,0.26953125 0.199218,0.5273437475 0.527343,0.5273437475 0.117188,0 0.246094,-0.0351562475 0.351563,-0.1289062475 0.02344,-0.0234375 0.03516,-0.0351563 0.04687,-0.0351563 0.01172,0 0.02344,0.0117188 0.02344,0.15234375 0,0.73828125 -0.351562,1.33593756 -0.679687,1.66406256 -0.105469,0.1054687 -0.105469,0.1289062 -0.105469,0.1640625 0,0.070312 0.04687,0.1054687 0.09375,0.1054687 0.117188,0 0.914063,-0.7617187 0.914063,-1.93359376 z m 4.456054,-3.97265629 h 0.9375 c 0.199219,0 0.304688,0 0.304688,-0.1992187 0,-0.1054688 -0.105469,-0.1054688 -0.28125,-0.1054688 h -0.878907 c 0.363282,-1.4179687 0.410157,-1.6171875 0.410157,-1.6757812 0,-0.1757813 -0.117188,-0.2695313 -0.292969,-0.2695313 -0.02344,0 -0.304688,0.011719 -0.398438,0.3515625 l -0.386718,1.59375 h -0.9375 c -0.199219,0 -0.292969,0 -0.292969,0.1875 0,0.1171875 0.07031,0.1171875 0.269531,0.1171875 h 0.878906 c -0.714843,2.8242188 -0.75,3.00000004 -0.75,3.17578129 0,0.5390625 0.375,0.9140625 0.914063,0.9140625 1.007812,0 1.582031,-1.45312499 1.582031,-1.53515629 0,-0.09375 -0.08203,-0.09375 -0.117187,-0.09375 -0.09375,0 -0.105469,0.023437 -0.152344,0.140625 -0.433594,1.03125004 -0.960938,1.27734379 -1.300781,1.27734379 -0.199219,0 -0.304688,-0.12890625 -0.304688,-0.45703125 0,-0.24609375 0.02344,-0.31640625 0.05859,-0.48046874 z m 0,0"
         style="fill:#000000;fill-opacity:1;fill-rule:nonzero;stroke:none" />
      <path
         id="path14"
         d="m 34.08157,-2.4958203 c 0,-0.7734375 -0.117187,-1.9804688 -0.65625,-3.1054688 -0.597656,-1.21875 -1.464843,-1.875 -1.558593,-1.875 -0.05859,0 -0.105469,0.046875 -0.105469,0.1054688 0,0.035156 0,0.046875 0.199219,0.234375 0.972656,0.984375 1.535156,2.5664062 1.535156,4.640625 0,1.71093749 -0.363281,3.45703124 -1.59375,4.7226562 -0.140625,0.1171875 -0.140625,0.1289063 -0.140625,0.1640625 0,0.058594 0.04687,0.1054688 0.105469,0.1054688 0.09375,0 0.996093,-0.6796875 1.582031,-1.94531251 0.503906,-1.1015625 0.632812,-2.20312499 0.632812,-3.04687499 z m 0,0"
         style="fill:#000000;fill-opacity:1;fill-rule:nonzero;stroke:none" />
    </g>
    <path
       id="path15"
       d="M 8.92957,4.94972 114.35828,63.38985"
       style="fill:none;stroke:#000000;stroke-width:0.3985;stroke-linecap:butt;stroke-linejoin:miter;stroke-miterlimit:10;stroke-dasharray:none;stroke-opacity:1"
       transform="matrix(1.3333333,0,0,-1.3333333,11.904,105.72133)" />
    <path
       id="path16"
       d="M 3.58653,0 C 2.52383,0.19925 0.797,0.797 -0.3985,1.49438 V -1.49438 C 0.797,-0.797 2.52383,-0.19925 3.58653,0"
       style="fill:#000000;fill-opacity:1;fill-rule:nonzero;stroke:none"
       transform="matrix(1.1661333,-0.64638667,-0.64638667,-1.1661333,164.38168,21.20156)" />
    <g
       id="g16"
       aria-label="ζ&#10;u&#10;(s)"
       transform="matrix(1.3333333,0,0,1.3333333,62.178667,50.989333)">
      <path
         id="path17"
         d="m 3.2234219,-5.7664141 c 0.1875,0.1757813 0.4101562,0.1757813 0.609375,0.1757813 0.2578125,0 0.890625,0 0.890625,-0.3046875 0,-0.2460938 -0.3984375,-0.2695313 -0.796875,-0.2695313 -0.1054688,0 -0.375,0 -0.6328125,0.09375 -0.058594,-0.1171875 -0.070312,-0.1640625 -0.070312,-0.375 0,-0.140625 0.046875,-0.3515625 0.046875,-0.3632812 0,-0.082031 -0.046875,-0.1289063 -0.1171875,-0.1289063 -0.1875,0 -0.1875,0.4570313 -0.1875,0.4804688 0,0.1757812 0.035156,0.3515625 0.1171875,0.5039062 -1.0546875,0.5273438 -2.62500003,2.3554688 -2.62500003,4.2890625 0,1.40625004 0.90234373,1.69921879 1.62890623,1.94531254 0.2929688,0.10546875 0.3164063,0.10546875 0.609375,0.2109375 0.1992188,0.0703125 0.609375,0.2109375 0.609375,0.66796876 0,0.2695312 -0.1875,0.6679687 -0.5507812,0.6679687 -0.2578125,0 -0.5273438,-0.1289062 -0.7382813,-0.3046875 -0.070312,-0.058594 -0.082031,-0.070312 -0.1171875,-0.070312 -0.058594,0 -0.1054687,0.046875 -0.1054687,0.1054688 0,0.1054687 0.4335937,0.4804687 0.9609375,0.4804687 0.609375,0 1.078125,-0.6328125 1.078125,-1.20703121 0,-0.375 -0.1875,-0.5859375 -0.2695313,-0.66796875 -0.1640625,-0.1875 -0.3515625,-0.24609375 -0.9375,-0.4453125 -0.7968755,-0.26953175 -0.960938,-0.31640675 -1.195313,-0.52734425 -0.421875,-0.37499999 -0.421875,-0.94921879 -0.421875,-1.13671879 0,-1.546875 1.21875,-3.28125 2.2148438,-3.8203125 z m 0.234375,-0.1171875 c 0.1523437,-0.058594 0.328125,-0.058594 0.4570312,-0.058594 0.328125,0 0.375,0 0.5507813,0.058594 -0.082031,0.023437 -0.1757813,0.070312 -0.6210938,0.070312 -0.2109375,0 -0.28125,0 -0.3867187,-0.070312 z m 0,0"
         style="fill:#000000;fill-opacity:1;fill-rule:nonzero;stroke:none" />
      <path
         id="path18"
         d="M 7.3132656,0.37128125 C 7.2781094,0.51190625 7.2077969,0.76971875 7.1960781,0.7814375 7.0671719,0.992375 6.7859219,1.367375 6.3523281,1.367375 c -0.4804687,0 -0.4804687,-0.4453125 -0.4804687,-0.57421875 0,-0.41015625 0.1992187,-0.90234375 0.3867187,-1.41796875 0.058594,-0.140625 0.1054688,-0.24609375 0.1054688,-0.3515625 0,-0.3632812 -0.3046875,-0.5976562 -0.6679688,-0.5976562 -0.6914062,0 -1.0078125,0.9492187 -1.0078125,1.0664062 0,0.0820313 0.09375,0.0820313 0.1171875,0.0820313 0.09375,0 0.1054688,-0.0351563 0.1289063,-0.10546875 0.1640625,-0.57421865 0.46875,-0.85546865 0.7382812,-0.85546865 0.1289063,0 0.1757813,0.082031 0.1757813,0.2460937 0,0.16406245 -0.046875,0.30468745 -0.1171875,0.46874995 -0.3867188,0.96093745 -0.3867188,1.1601562 -0.3867188,1.3476562 0,0.1171875 0,0.44531255 0.2695313,0.66796875 0.1992187,0.1640625 0.46875,0.2226563 0.7148437,0.2226563 0.4335938,0 0.6796875,-0.234375 0.9023438,-0.4570313 0.1523437,0.4453125 0.6210937,0.4570313 0.703125,0.4570313 0.234375,0 0.421875,-0.140625 0.5507812,-0.375 0.1523438,-0.2695313 0.2578125,-0.6679688 0.2578125,-0.6914063 0,-0.09375 -0.1054687,-0.09375 -0.1171875,-0.09375 -0.1054687,0 -0.1054687,0.0351563 -0.1640625,0.22265625 -0.082031,0.328125 -0.2109375,0.73828125 -0.5039062,0.73828125 -0.1757813,0 -0.234375,-0.1523437 -0.234375,-0.3398437 0,-0.11718755 0.058594,-0.3632813 0.1054687,-0.5507813 C 7.8757656,0.28925 7.9460781,0.008 7.9812344,-0.14434375 L 8.1452969,-0.7654375 c 0.046875,-0.17578125 0.1171875,-0.4804687 0.1171875,-0.515625 0,-0.140625 -0.1054688,-0.2226562 -0.2226563,-0.2226562 -0.2578125,0 -0.3164062,0.1992187 -0.3632812,0.421875 z m 0,0"
         style="fill:#000000;fill-opacity:1;fill-rule:nonzero;stroke:none" />
      <path
         id="path19"
         d="m 12.859164,2.3898359 c 0,-0.035156 0,-0.046875 -0.164062,-0.2226562 -1.242188,-1.25390626 -1.570313,-3.12890626 -1.570313,-4.6640625 0,-1.7226563 0.386719,-3.4570313 1.605469,-4.7109375 0.128906,-0.1171875 0.128906,-0.1289063 0.128906,-0.1640625 0,-0.070312 -0.03516,-0.1054688 -0.09375,-0.1054688 -0.105469,0 -0.996094,0.6796875 -1.582031,1.9453125 -0.515625,1.1015625 -0.632813,2.203125 -0.632813,3.0351563 0,0.7851562 0.117188,1.99218749 0.65625,3.11718749 0.597657,1.21875001 1.453125,1.87500001 1.558594,1.87500001 0.05859,0 0.09375,-0.035156 0.09375,-0.1054688 z m 0,0"
         style="fill:#000000;fill-opacity:1;fill-rule:nonzero;stroke:none" />
      <path
         id="path20"
         d="m 17.332797,-3.7273516 c -0.269531,0.011719 -0.46875,0.234375 -0.46875,0.4453125 0,0.140625 0.08203,0.2929688 0.304687,0.2929688 0.222657,0 0.457032,-0.1640625 0.457032,-0.5625 0,-0.4453125 -0.433594,-0.8554688 -1.183594,-0.8554688 -1.3125,0 -1.6875,1.0195313 -1.6875,1.453125 0,0.7851563 0.738281,0.9257813 1.03125,0.9960938 0.515625,0.09375 1.03125,0.1992187 1.03125,0.75 0,0.25781249 -0.222656,1.10156249 -1.417969,1.10156249 -0.140625,0 -0.914062,0 -1.136719,-0.52734375 0.375,0.046875 0.621094,-0.2578125 0.621094,-0.52734374 0,-0.234375 -0.152344,-0.3515625 -0.363281,-0.3515625 -0.257813,0 -0.5625,0.2109375 -0.5625,0.65624999 0,0.5625 0.574219,0.9609375 1.429687,0.9609375 1.605469,0 2.003907,-1.20703129 2.003907,-1.65234379 0,-0.3515625 -0.199219,-0.609375 -0.316407,-0.7265625 -0.269531,-0.28125 -0.550781,-0.328125 -0.996093,-0.421875 -0.351563,-0.070312 -0.75,-0.140625 -0.75,-0.5976562 0,-0.28125 0.234375,-0.890625 1.113281,-0.890625 0.246094,0 0.75,0.070312 0.890625,0.4570312 z m 0,0"
         style="fill:#000000;fill-opacity:1;fill-rule:nonzero;stroke:none" />
      <path
         id="path21"
         d="m 20.994906,-2.4968828 c 0,-0.7734375 -0.117187,-1.9804688 -0.65625,-3.1054688 -0.597656,-1.21875 -1.464844,-1.875 -1.558594,-1.875 -0.05859,0 -0.105468,0.046875 -0.105468,0.1054688 0,0.035156 0,0.046875 0.199218,0.234375 0.972657,0.984375 1.535157,2.5664062 1.535157,4.640625 0,1.71093749 -0.363282,3.45703124 -1.59375,4.7226562 -0.140625,0.1171875 -0.140625,0.1289063 -0.140625,0.1640625 0,0.058594 0.04687,0.1054688 0.105468,0.1054688 0.09375,0 0.996094,-0.6796875 1.582032,-1.94531251 0.503906,-1.1015625 0.632812,-2.20312499 0.632812,-3.04687499 z m 0,0"
         style="fill:#000000;fill-opacity:1;fill-rule:nonzero;stroke:none" />
    </g>
    <path
       id="path22"
       d="M 8.92937,-5.26071 111.91805,-65.94049"
       style="fill:none;stroke:#000000;stroke-width:0.3985;stroke-linecap:butt;stroke-linejoin:miter;stroke-miterlimit:10;stroke-dasharray:none;stroke-opacity:1"
       transform="matrix(1.3333333,0,0,-1.3333333,11.904,105.72133)" />
    <path
       id="path23"
       d="M 3.58653,0 C 2.52383,0.19925 0.797,0.797 -0.3985,1.49438 V -1.49438 C 0.797,-0.797 2.52383,-0.19925 3.58653,0"
       style="fill:#000000;fill-opacity:1;fill-rule:nonzero;stroke:none"
       transform="matrix(1.14868,0.6768,0.6768,-1.14868,161.12804,193.64199)" />
    <g
       id="g23"
       aria-label="η&#10;uv&#10;(s,t)"
       transform="matrix(1.3333333,0,0,1.3333333,43.389333,169.05733)">
      <path
         id="path24"
         d="m 4.86425,-2.7529609 c 0.046875,-0.1875 0.082031,-0.3164063 0.082031,-0.5859375 0,-0.6445313 -0.3984375,-1.0664063 -1.1484375,-1.0664063 -0.7851562,0 -1.3007812,0.515625 -1.546875,0.8671875 -0.046875,-0.5625 -0.46875,-0.8671875 -0.9140625,-0.8671875 -0.4570312,0 -0.6445312,0.3867188 -0.7382812,0.5742188 -0.17578125,0.3398437 -0.3046875,0.9375 -0.3046875,0.9609375 0,0.1054687 0.09375,0.1054687 0.1171875,0.1054687 0.09375,0 0.10546875,-0.011719 0.1640625,-0.234375 0.17578125,-0.703125 0.375,-1.1835937 0.7265625,-1.1835937 0.1757812,0 0.3164062,0.082031 0.3164062,0.4570312 0,0.2109375 -0.035156,0.3164063 -0.1640625,0.8320313 L 0.879875,-0.58499219 c -0.0351563,0.15234375 -0.09375,0.375 -0.09375,0.421875 0,0.1875 0.140625,0.26953125 0.2929687,0.26953125 0.1171875,0 0.2929688,-0.0703125 0.3632813,-0.26953125 0.011719,-0.0234375 0.1289062,-0.4921875 0.1875,-0.73828125 L 1.8525312,-1.8037422 c 0.058594,-0.2226562 0.1171875,-0.4335937 0.1757813,-0.6679687 0.011719,-0.058594 0.09375,-0.3867188 0.1054687,-0.4453125 0.023437,-0.09375 0.3398438,-0.6445313 0.6796875,-0.9140625 0.2109375,-0.1640625 0.5273438,-0.3515625 0.9492188,-0.3515625 0.4335937,0 0.5390625,0.3398437 0.5390625,0.6914062 0,0.058594 0,0.234375 -0.09375,0.6328125 L 3.0712812,1.7236016 c -0.035156,0.1171875 -0.035156,0.140625 -0.035156,0.1640625 0,0.140625 0.1171875,0.2695312 0.28125,0.2695312 0.3046875,0 0.375,-0.2929687 0.4101562,-0.3984375 z m 0,0"
         style="fill:#000000;fill-opacity:1;fill-rule:nonzero;stroke:none" />
      <path
         id="path25"
         d="M 7.8994062,0.37008594 C 7.86425,0.51071094 7.7939375,0.76852344 7.7822187,0.78024219 7.6533125,0.99117969 7.3720625,1.3661797 6.9384687,1.3661797 6.458,1.3661797 6.458,0.92086719 6.458,0.79196094 c 0,-0.41015625 0.1992187,-0.90234375 0.3867187,-1.41796875 0.058594,-0.140625 0.1054688,-0.24609375 0.1054688,-0.3515625 0,-0.36328129 -0.3046875,-0.59765629 -0.6679688,-0.59765629 -0.6914062,0 -1.0078125,0.94921879 -1.0078125,1.06640629 0,0.0820313 0.09375,0.0820313 0.1171875,0.0820313 0.09375,0 0.1054688,-0.0351563 0.1289063,-0.10546875 0.1640625,-0.57421874 0.46875,-0.85546874 0.7382812,-0.85546874 0.1289063,0 0.1757813,0.082031 0.1757813,0.2460937 0,0.16406254 -0.046875,0.30468754 -0.1171875,0.46875004 -0.3867188,0.9609375 -0.3867188,1.16015625 -0.3867188,1.34765625 0,0.1171875 0,0.44531241 0.2695313,0.66796881 0.1992187,0.1640625 0.46875,0.2226562 0.7148437,0.2226562 0.4335938,0 0.6796875,-0.234375 0.9023438,-0.4570312 0.1523437,0.4453125 0.6210937,0.4570312 0.703125,0.4570312 0.234375,0 0.421875,-0.140625 0.5507812,-0.375 0.1523438,-0.26953126 0.2578125,-0.66796876 0.2578125,-0.69140626 0,-0.09375 -0.1054687,-0.09375 -0.1171875,-0.09375 -0.1054687,0 -0.1054687,0.0351563 -0.1640625,0.22265625 -0.082031,0.328125 -0.2109375,0.73828131 -0.5039062,0.73828131 -0.1757813,0 -0.234375,-0.1523438 -0.234375,-0.3398438 0,-0.11718751 0.058594,-0.36328126 0.1054687,-0.55078126 0.046875,-0.1875 0.1171875,-0.46875 0.1523438,-0.62109375 l 0.1640625,-0.6210938 C 8.7783125,-0.94241406 8.848625,-1.2471016 8.848625,-1.2822578 c 0,-0.140625 -0.1054688,-0.2226563 -0.2226563,-0.2226563 -0.2578125,0 -0.3164062,0.1992188 -0.3632812,0.421875 z M 13.383781,-1.0361641 c 0,-0.5390625 -0.328125,-0.5507812 -0.351562,-0.5507812 -0.175782,0 -0.375,0.1875 -0.375,0.375 0,0.1171875 0.07031,0.1640625 0.117187,0.2109375 0.117188,0.09375 0.257813,0.28124999 0.257813,0.56249999 0,0.3046875 -0.457032,1.80468751 -1.289063,1.80468751 -0.5625,0 -0.5625,-0.50390626 -0.5625,-0.62109376 0,-0.31640625 0.117188,-0.703125 0.375,-1.359375 0.05859,-0.140625 0.105469,-0.24609375 0.105469,-0.36328125 0,-0.36328129 -0.304688,-0.59765629 -0.667969,-0.59765629 -0.691406,0 -1.0078123,0.94921879 -1.0078123,1.06640629 0,0.0820313 0.09375,0.0820313 0.1171873,0.0820313 0.09375,0 0.105469,-0.0351563 0.128906,-0.10546875 0.164063,-0.57421874 0.46875,-0.85546874 0.738282,-0.85546874 0.128906,0 0.175781,0.082031 0.175781,0.2460937 0,0.16406254 -0.04687,0.30468754 -0.117188,0.46875004 -0.304687,0.7734375 -0.386718,1.078125 -0.386718,1.32421875 0,0.69140631 0.550781,0.91406241 1.078125,0.91406241 1.171875,0 1.664062,-2.02734366 1.664062,-2.6015625 z m 0,0"
         style="fill:#000000;fill-opacity:1;fill-rule:nonzero;stroke:none" />
      <path
         id="path26"
         d="m 17.681633,2.3915703 c 0,-0.035156 0,-0.046875 -0.164063,-0.2226562 -1.242187,-1.25390629 -1.570312,-3.12890629 -1.570312,-4.6640625 0,-1.7226563 0.386719,-3.4570313 1.605469,-4.7109375 0.128906,-0.1171875 0.128906,-0.1289063 0.128906,-0.1640625 0,-0.070312 -0.03516,-0.1054688 -0.09375,-0.1054688 -0.105469,0 -0.996094,0.6796875 -1.582031,1.9453125 -0.515625,1.1015625 -0.632813,2.203125 -0.632813,3.0351563 0,0.7851562 0.117188,1.99218746 0.65625,3.11718746 0.597656,1.21875004 1.453125,1.87500004 1.558594,1.87500004 0.05859,0 0.09375,-0.035156 0.09375,-0.1054688 z m 0,0"
         style="fill:#000000;fill-opacity:1;fill-rule:nonzero;stroke:none" />
      <path
         id="path27"
         d="m 22.155266,-3.7256172 c -0.269532,0.011719 -0.46875,0.234375 -0.46875,0.4453125 0,0.140625 0.08203,0.2929688 0.304687,0.2929688 0.222656,0 0.457031,-0.1640625 0.457031,-0.5625 0,-0.4453125 -0.433593,-0.8554688 -1.183593,-0.8554688 -1.3125,0 -1.6875,1.0195313 -1.6875,1.453125 0,0.7851563 0.738281,0.9257813 1.03125,0.9960938 0.515625,0.09375 1.03125,0.1992187 1.03125,0.75 0,0.25781246 -0.222657,1.10156246 -1.417969,1.10156246 -0.140625,0 -0.914063,0 -1.136719,-0.52734375 0.375,0.046875 0.621094,-0.2578125 0.621094,-0.52734371 0,-0.234375 -0.152344,-0.3515625 -0.363281,-0.3515625 -0.257813,0 -0.5625,0.2109375 -0.5625,0.65624996 0,0.5625 0.574218,0.9609375 1.429687,0.9609375 1.605469,0 2.003906,-1.20703126 2.003906,-1.65234376 0,-0.3515625 -0.199218,-0.609375 -0.316406,-0.7265625 -0.269531,-0.28125 -0.550781,-0.328125 -0.996094,-0.421875 -0.351562,-0.070312 -0.75,-0.140625 -0.75,-0.5976562 0,-0.28125 0.234375,-0.890625 1.113282,-0.890625 0.246093,0 0.75,0.070312 0.890625,0.4570312 z m 2.80664,3.71484376 c 0,-0.65625 -0.257812,-1.04296876 -0.644531,-1.04296876 -0.328125,0 -0.527344,0.24609376 -0.527344,0.52734376 0,0.26953125 0.199219,0.5273437525 0.527344,0.5273437525 0.117187,0 0.246094,-0.0351562525 0.351562,-0.1289062525 0.02344,-0.0234375 0.03516,-0.0351563 0.04687,-0.0351563 0.01172,0 0.02344,0.0117188 0.02344,0.15234375 0,0.73828125 -0.351563,1.33593759 -0.679688,1.66406259 -0.105468,0.1054687 -0.105468,0.1289062 -0.105468,0.1640625 0,0.070312 0.04687,0.1054687 0.09375,0.1054687 0.117187,0 0.914062,-0.7617187 0.914062,-1.93359379 z m 4.456055,-3.97265626 h 0.9375 c 0.199219,0 0.304687,0 0.304687,-0.1992187 0,-0.1054688 -0.105468,-0.1054688 -0.28125,-0.1054688 h -0.878906 c 0.363281,-1.4179687 0.410156,-1.6171875 0.410156,-1.6757812 0,-0.1757813 -0.117187,-0.2695313 -0.292968,-0.2695313 -0.02344,0 -0.304688,0.011719 -0.398438,0.3515625 l -0.386719,1.59375 h -0.9375 c -0.199218,0 -0.292968,0 -0.292968,0.1875 0,0.1171875 0.07031,0.1171875 0.269531,0.1171875 h 0.878906 c -0.714844,2.8242188 -0.75,3.00000001 -0.75,3.17578126 0,0.5390625 0.375,0.9140625 0.914063,0.9140625 1.007812,0 1.582031,-1.45312496 1.582031,-1.53515626 0,-0.09375 -0.08203,-0.09375 -0.117188,-0.09375 -0.09375,0 -0.105468,0.023437 -0.152343,0.140625 -0.433594,1.03125001 -0.960938,1.27734376 -1.300782,1.27734376 -0.199218,0 -0.304687,-0.12890625 -0.304687,-0.45703125 0,-0.24609375 0.02344,-0.31640625 0.05859,-0.48046871 z m 0,0"
         style="fill:#000000;fill-opacity:1;fill-rule:nonzero;stroke:none" />
      <path
         id="path28"
         d="m 33.841789,-2.4951484 c 0,-0.7734375 -0.117187,-1.9804688 -0.65625,-3.1054688 -0.597656,-1.21875 -1.464844,-1.875 -1.558594,-1.875 -0.05859,0 -0.105468,0.046875 -0.105468,0.1054688 0,0.035156 0,0.046875 0.199218,0.234375 0.972657,0.984375 1.535157,2.5664062 1.535157,4.640625 0,1.71093746 -0.363282,3.45703121 -1.59375,4.7226562 -0.140625,0.1171875 -0.140625,0.1289063 -0.140625,0.1640625 0,0.058594 0.04687,0.1054688 0.105468,0.1054688 0.09375,0 0.996094,-0.6796875 1.582032,-1.94531254 0.503906,-1.1015625 0.632812,-2.20312496 0.632812,-3.04687496 z m 0,0"
         style="fill:#000000;fill-opacity:1;fill-rule:nonzero;stroke:none" />
    </g>
    <path
       id="path29"
       d="M 136.66792,-67.74245 239.65819,-6.88438"
       style="fill:none;stroke:#000000;stroke-width:0.3985;stroke-linecap:butt;stroke-linejoin:miter;stroke-miterlimit:10;stroke-dasharray:none;stroke-opacity:1"
       transform="matrix(1.3333333,0,0,-1.3333333,11.904,105.72133)" />
    <path
       id="path30"
       d="M 3.58653,0 C 2.52383,0.19925 0.797,0.797 -0.3985,1.49438 V -1.49438 C 0.797,-0.797 2.52383,-0.19925 3.58653,0"
       style="fill:#000000;fill-opacity:1;fill-rule:nonzero;stroke:none"
       transform="matrix(1.1478267,-0.67828,-0.67828,-1.1478267,331.44823,114.90051)" />
    <g
       id="g30"
       aria-label="ρ&#10;uv&#10;(s,t)"
       transform="matrix(1.3333333,0,0,1.3333333,269.53733,168.912)">
      <path
         id="path31"
         d="m 0.32942188,1.7212734 c -0.0234375,0.1171875 -0.0234375,0.140625 -0.0234375,0.1640625 0,0.140625 0.10546875,0.2695313 0.26953125,0.2695313 0.2109375,0 0.328125,-0.1875 0.3515625,-0.2109375 0.046875,-0.09375 0.37499997,-1.42968751 0.63281247,-2.50781251 0.1992188,0.3984375 0.5273438,0.66796875 0.9960938,0.66796875 1.1601562,0 2.4492187,-1.40625004 2.4492187,-2.88281254 0,-1.0546875 -0.65625,-1.6289062 -1.3828125,-1.6289062 -0.9726562,0 -2.015625,0.9960937 -2.3203125,2.2148437 z M 2.5442656,-0.10685156 c -0.703125,0 -0.8554687,-0.796875 -0.8554687,-0.890625 0,-0.0351562 0.046875,-0.23437504 0.070312,-0.36328124 0.28125,-1.125 0.3867187,-1.4765625 0.5976562,-1.875 0.4335938,-0.7265625 0.9375,-0.9492188 1.2421875,-0.9492188 0.3632813,0 0.6914063,0.2929688 0.6914063,0.9726563 0,0.5507812 -0.2929688,1.6640625 -0.5625,2.15625 -0.328125,0.62109374 -0.8085938,0.94921874 -1.1835933,0.94921874 z m 0,0"
         style="fill:#000000;fill-opacity:1;fill-rule:nonzero;stroke:none" />
      <path
         id="path32"
         d="m 8.1018828,0.36775781 c -0.035156,0.140625 -0.1054687,0.3984375 -0.1171875,0.41015625 -0.1289062,0.2109375 -0.4101562,0.58593754 -0.84375,0.58593754 -0.4804687,0 -0.4804687,-0.44531254 -0.4804687,-0.57421879 0,-0.41015625 0.1992187,-0.90234375 0.3867187,-1.41796875 0.058594,-0.140625 0.1054688,-0.24609375 0.1054688,-0.3515625 0,-0.36328126 -0.3046875,-0.59765626 -0.6679688,-0.59765626 -0.6914062,0 -1.0078125,0.94921876 -1.0078125,1.06640626 0,0.0820313 0.09375,0.0820313 0.1171875,0.0820313 0.09375,0 0.1054688,-0.0351563 0.1289063,-0.10546875 0.1640625,-0.57421871 0.46875,-0.85546871 0.7382812,-0.85546871 0.1289063,0 0.1757813,0.082031 0.1757813,0.2460938 0,0.16406241 -0.046875,0.30468741 -0.1171875,0.46874991 -0.3867188,0.9609375 -0.3867188,1.16015625 -0.3867188,1.34765625 0,0.1171875 0,0.44531244 0.2695313,0.66796874 0.1992187,0.1640625 0.46875,0.2226562 0.7148437,0.2226562 0.4335938,0 0.6796875,-0.234375 0.9023438,-0.4570312 0.1523437,0.4453125 0.6210937,0.4570312 0.703125,0.4570312 0.234375,0 0.421875,-0.140625 0.5507812,-0.375 0.1523438,-0.26953119 0.2578125,-0.66796869 0.2578125,-0.69140619 0,-0.09375 -0.1054687,-0.09375 -0.1171875,-0.09375 -0.1054687,0 -0.1054687,0.0351563 -0.1640625,0.22265625 -0.082031,0.328125 -0.2109375,0.73828124 -0.5039062,0.73828124 -0.1757813,0 -0.234375,-0.1523438 -0.234375,-0.3398438 0,-0.11718744 0.058594,-0.36328119 0.1054687,-0.55078119 0.046875,-0.1875 0.1171875,-0.46875 0.1523438,-0.62109375 l 0.1640625,-0.62109375 c 0.046875,-0.17578125 0.1171875,-0.48046871 0.1171875,-0.51562491 0,-0.140625 -0.1054688,-0.2226563 -0.2226563,-0.2226563 -0.2578125,0 -0.3164062,0.1992188 -0.3632812,0.421875 z M 13.586258,-1.0384922 c 0,-0.5390625 -0.328125,-0.5507812 -0.351563,-0.5507812 -0.175781,0 -0.375,0.1875 -0.375,0.375 0,0.1171875 0.07031,0.1640625 0.117188,0.2109375 0.117187,0.09375 0.257812,0.28124996 0.257812,0.56249996 0,0.3046875 -0.457031,1.80468754 -1.289062,1.80468754 -0.5625,0 -0.5625,-0.50390629 -0.5625,-0.62109379 0,-0.31640625 0.117187,-0.703125 0.375,-1.359375 0.05859,-0.140625 0.105469,-0.24609375 0.105469,-0.36328125 0,-0.36328126 -0.304688,-0.59765626 -0.667969,-0.59765626 -0.691406,0 -1.007813,0.94921876 -1.007813,1.06640626 0,0.0820313 0.09375,0.0820313 0.117188,0.0820313 0.09375,0 0.105469,-0.0351563 0.128906,-0.10546875 0.164063,-0.57421881 0.46875,-0.85546881 0.738281,-0.85546881 0.128907,0 0.175782,0.082031 0.175782,0.2460938 0,0.16406251 -0.04687,0.30468751 -0.117188,0.46875001 -0.304687,0.7734375 -0.386719,1.078125 -0.386719,1.32421875 0,0.69140624 0.550782,0.91406244 1.078125,0.91406244 1.171875,0 1.664063,-2.02734369 1.664063,-2.6015625 z m 0,0"
         style="fill:#000000;fill-opacity:1;fill-rule:nonzero;stroke:none" />
      <path
         id="path33"
         d="m 17.887039,2.3892422 c 0,-0.035156 0,-0.046875 -0.164062,-0.2226563 -1.242188,-1.25390621 -1.570313,-3.12890621 -1.570313,-4.6640625 0,-1.7226562 0.386719,-3.4570312 1.605469,-4.7109375 0.128906,-0.1171875 0.128906,-0.1289062 0.128906,-0.1640625 0,-0.070312 -0.03516,-0.1054687 -0.09375,-0.1054687 -0.105469,0 -0.996094,0.6796875 -1.582031,1.9453125 -0.515625,1.1015625 -0.632813,2.203125 -0.632813,3.0351562 0,0.7851563 0.117188,1.99218754 0.65625,3.11718754 0.597657,1.21874996 1.453125,1.87499996 1.558594,1.87499996 0.05859,0 0.09375,-0.035156 0.09375,-0.1054687 z m 0,0"
         style="fill:#000000;fill-opacity:1;fill-rule:nonzero;stroke:none" />
      <path
         id="path34"
         d="m 22.360672,-3.7279453 c -0.269531,0.011719 -0.46875,0.234375 -0.46875,0.4453125 0,0.140625 0.08203,0.2929687 0.304687,0.2929687 0.222657,0 0.457032,-0.1640625 0.457032,-0.5625 0,-0.4453125 -0.433594,-0.8554687 -1.183594,-0.8554687 -1.3125,0 -1.6875,1.0195312 -1.6875,1.453125 0,0.7851562 0.738281,0.9257812 1.03125,0.9960937 0.515625,0.09375 1.03125,0.1992188 1.03125,0.75 0,0.25781254 -0.222656,1.10156254 -1.417969,1.10156254 -0.140625,0 -0.914062,0 -1.136719,-0.52734375 0.375,0.046875 0.621094,-0.2578125 0.621094,-0.52734379 0,-0.234375 -0.152344,-0.3515625 -0.363281,-0.3515625 -0.257813,0 -0.5625,0.2109375 -0.5625,0.65625004 0,0.5625 0.574219,0.9609375 1.429687,0.9609375 1.605469,0 2.003907,-1.20703124 2.003907,-1.65234374 0,-0.3515625 -0.199219,-0.609375 -0.316407,-0.7265625 -0.269531,-0.28125 -0.550781,-0.328125 -0.996093,-0.421875 -0.351563,-0.070312 -0.75,-0.140625 -0.75,-0.5976563 0,-0.28125 0.234375,-0.890625 1.113281,-0.890625 0.246094,0 0.75,0.070312 0.890625,0.4570313 z m 2.806641,3.71484374 c 0,-0.65625 -0.257813,-1.04296874 -0.644532,-1.04296874 -0.328125,0 -0.527343,0.24609374 -0.527343,0.52734374 0,0.26953125 0.199218,0.52734375 0.527343,0.52734375 0.117188,0 0.246094,-0.03515625 0.351563,-0.12890625 0.02344,-0.0234375 0.03516,-0.0351563 0.04687,-0.0351563 0.01172,0 0.02344,0.0117188 0.02344,0.15234375 0,0.73828125 -0.351562,1.33593741 -0.679687,1.66406241 C 24.1595,1.7564297 24.1595,1.7798672 24.1595,1.8150234 c 0,0.070312 0.04687,0.1054688 0.09375,0.1054688 0.117188,0 0.914063,-0.7617188 0.914063,-1.93359376 z m 4.453125,-3.97265624 h 0.9375 c 0.199218,0 0.304687,0 0.304687,-0.1992188 0,-0.1054687 -0.105469,-0.1054687 -0.28125,-0.1054687 h -0.878906 c 0.363281,-1.4179688 0.410156,-1.6171875 0.410156,-1.6757813 0,-0.1757812 -0.117187,-0.2695312 -0.292969,-0.2695312 -0.02344,0 -0.304687,0.011719 -0.398437,0.3515625 l -0.386719,1.59375 H 28.097 c -0.199219,0 -0.292969,0 -0.292969,0.1875 0,0.1171875 0.07031,0.1171875 0.269532,0.1171875 h 0.878906 c -0.714844,2.8242187 -0.75,2.99999999 -0.75,3.17578124 0,0.5390625 0.375,0.9140625 0.914062,0.9140625 1.007813,0 1.582032,-1.45312504 1.582032,-1.53515624 0,-0.09375 -0.08203,-0.09375 -0.117188,-0.09375 -0.09375,0 -0.105469,0.023437 -0.152344,0.140625 -0.433593,1.03124999 -0.960937,1.27734374 -1.300781,1.27734374 -0.199219,0 -0.304687,-0.12890625 -0.304687,-0.45703125 0,-0.24609375 0.02344,-0.31640625 0.05859,-0.48046879 z m 0,0"
         style="fill:#000000;fill-opacity:1;fill-rule:nonzero;stroke:none" />
      <path
         id="path35"
         d="m 34.047195,-2.4974766 c 0,-0.7734375 -0.117187,-1.9804687 -0.65625,-3.1054687 -0.597656,-1.21875 -1.464843,-1.875 -1.558593,-1.875 -0.05859,0 -0.105469,0.046875 -0.105469,0.1054687 0,0.035156 0,0.046875 0.199219,0.234375 0.972656,0.984375 1.535156,2.5664063 1.535156,4.640625 0,1.71093754 -0.363281,3.45703129 -1.59375,4.7226563 -0.140625,0.1171875 -0.140625,0.1289062 -0.140625,0.1640625 0,0.058594 0.04687,0.1054687 0.105469,0.1054687 0.09375,0 0.996093,-0.6796875 1.582031,-1.94531246 0.503906,-1.1015625 0.632812,-2.20312504 0.632812,-3.04687504 z m 0,0"
         style="fill:#000000;fill-opacity:1;fill-rule:nonzero;stroke:none" />
    </g>
  </g>
</svg>
